0
SECTION
2
HEADER
9
$INSUNITS
70
4
9
$ACADVER
1
AC1014
9
$HANDSEED
5
FFFF
0
ENDSEC
0
SECTION
2
TABLES
0
TABLE
2
VPORT
5
8
100
AcDbSymbolTable
0
ENDTAB
0
TABLE
2
LTYPE
5
5
100
AcDbSymbolTable
0
LTYPE
5
14
100
AcDbSymbolTableRecord
100
AcDbLinetypeTableRecord
2
BYBLOCK
70
0
0
LTYPE
5
15
100
AcDbSymbolTableRecord
100
AcDbLinetypeTableRecord
2
BYLAYER
70
0
0
LTYPE
5
16
100
AcDbSymbolTableRecord
100
AcDbLinetypeTableRecord
2
DASHED
70
0
3
Dashed __ __ __ __ __ __ __ __ __ __ __ __ __ _
72
65
73
2
40
0.75
49
0.5
74
0
49
-0.25
74
0
0
ENDTAB
0
TABLE
2
LAYER
5
2
100
AcDbSymbolTable
70
2
0
LAYER
5
50
100
AcDbSymbolTableRecord
100
AcDbLayerTableRecord
2
0
70
0
62
7
6
CONTINUOUS
0
ENDTAB
0
TABLE
2
STYLE
5
3
100
AcDbSymbolTable
70
1
0
STYLE
5
11
100
AcDbSymbolTableRecord
100
AcDbTextStyleTableRecord
2
STANDARD
70
0
0
ENDTAB
0
TABLE
2
VIEW
5
6
100
AcDbSymbolTable
70
0
0
ENDTAB
0
TABLE
2
UCS
5
7
100
AcDbSymbolTable
70
0
0
ENDTAB
0
TABLE
2
APPID
5
9
100
AcDbSymbolTable
70
2
0
APPID
5
12
100
AcDbSymbolTableRecord
100
AcDbRegAppTableRecord
2
ACAD
70
0
0
ENDTAB
0
TABLE
2
DIMSTYLE
5
A
100
AcDbSymbolTable
70
1
0
ENDTAB
0
TABLE
2
BLOCK_RECORD
5
1
100
AcDbSymbolTable
70
1
0
BLOCK_RECORD
5
1F
100
AcDbSymbolTableRecord
100
AcDbBlockTableRecord
2
*MODEL_SPACE
0
BLOCK_RECORD
5
1B
100
AcDbSymbolTableRecord
100
AcDbBlockTableRecord
2
*PAPER_SPACE
0
ENDTAB
0
ENDSEC
0
SECTION
2
BLOCKS
0
BLOCK
5
20
100
AcDbEntity
100
AcDbBlockBegin
2
*MODEL_SPACE
0
ENDBLK
5
21
100
AcDbEntity
100
AcDbBlockEnd
0
BLOCK
5
1C
100
AcDbEntity
100
AcDbBlockBegin
2
*PAPER_SPACE
0
ENDBLK
5
1D
100
AcDbEntity
100
AcDbBlockEnd
0
ENDSEC
0
SECTION
2
ENTITIES
0
LWPOLYLINE
5
100
100
AcDbEntity
8
0
100
AcDbPolyline
90
4
70
1
43
0.0
10
9.3462438235938841
20
41.216624790355354
42
0.53667504192891902
10
-0.65375617640570372
20
41.216624790355127
10
-0.65375617640612282
20
34.583375209644565
42
0.53667504192892224
10
9.3462438235943068
20
34.583375209644331
0
CIRCLE
5
101
100
AcDbEntity
8
0
100
AcDbCircle
10
4.3462438235941647
20
18.865447419166969
30
0
40
1.9999999999998863
210
0
220
-0
230
1
0
CIRCLE
5
102
100
AcDbEntity
8
0
100
AcDbCircle
10
18.26994714077955
20
43.479470040693975
30
0
40
2.0000000000000284
210
0
220
-0
230
1
0
CIRCLE
5
103
100
AcDbEntity
8
0
100
AcDbCircle
10
-9.5774594935913626
20
43.479470040694039
30
0
40
2.0000000000000284
210
0
220
-0
230
1
0
LWPOLYLINE
5
104
100
AcDbEntity
8
0
100
AcDbPolyline
90
39
70
1
43
0.0
10
19.552850919753553
20
37.995397185652294
10
19.619949852030487
20
37.995818124344211
42
0.52579362665010143
10
23.321625060815414
20
43.44873556656195
42
0.068041796226423007
10
21.346243823590605
20
47.000000000004441
42
0.41421356237332063
10
7.3462438235938432
20
49.000000000000135
42
-0.087558833877309339
10
1.3462438235941876
20
49.000000000000092
42
0.41421356237329665
10
-12.65375617640272
20
47.000000000003951
42
0.068041796226412099
10
-14.629137413627213
20
43.44873556656205
42
0.52579362665010421
10
-10.927462204842303
20
37.99581812434424
10
-10.860363272565367
20
37.995397185652294
42
-0.35824906874277251
10
-7.9323262869019082
20
35.557625981694734
42
0.14356670051663761
10
-4.7238994649985999
20
29.298691917830393
42
0.025552908859984277
10
-4.2245341532125753
20
28.823281914152041
42
-0.21865368551020406
10
-0.65375617640569317
20
21.048290392298949
10
-0.65375617640598904
20
16.999999999999872
42
-0.21528527535902328
10
-3.0243906269114995
20
11.749383406764906
42
0.67744355435031489
10
-2.4003332295491475
20
9.9999999999998614
10
-0.5411409769300235
20
9.9999999999999467
42
0.19140132312169653
10
0.83155619311913753
20
10.545454545454398
42
-0.82547471353764335
10
2.0270766677491192
20
9.6852506789639499
42
0.0058267715069920956
10
1.6981649901224438
20
8.9515333489356532
42
0.10280242910474008
10
1.3463176318874996
20
7.25833933125773
10
1.3463176318875014
20
1.7209952193987377
42
0.41781317302787896
10
3.0671832142175499
20
0.021123274964652716
10
6.0874698555923601
20
0.058196679100870341
42
0.41781317302785115
10
7.766092070290683
20
1.7997966447196843
10
7.6301730041689098
20
7.3354723776906994
42
0.10280242910473728
10
7.2368706938298066
20
9.0195198347651697
42
0.0058267715069885229
10
6.8900483675253099
20
9.7449426673529835
42
-0.82547471353765722
10
8.0640941631529017
20
10.634232477793848
42
0.19140132312170521
10
9.4497664151187148
20
10.122636355887105
10
11.308398500798376
20
10.168271893359861
42
0.67744355435031556
10
11.889327691154328
20
11.932446265370761
42
-0.21528527535902584
10
9.3905264203986842
20
17.123291525667824
10
9.3462438235943068
20
18.926821402059744
10
9.3462438235943139
20
21.048290392298941
42
-0.21865368551020395
10
12.917021800401187
20
28.823281914152027
42
0.025552908859969303
10
13.41638711218703
20
29.298691917830055
42
0.1435667005166395
10
16.62481393408989
20
35.557625981694706
42
-0.35824906874278278
0
ENDSEC
0
SECTION
2
OBJECTS
0
DICTIONARY
5
C
100
AcDbDictionary
3
ACAD_GROUP
350
D
3
ACAD_MLINESTYLE
350
17
0
DICTIONARY
5
D
100
AcDbDictionary
0
DICTIONARY
5
1A
330
C
100
AcDbDictionary
0
DICTIONARY
5
17
100
AcDbDictionary
0
ENDSEC
0
EOF
