0
SECTION
2
HEADER
9
$INSUNITS
70
4
9
$ACADVER
1
AC1014
9
$HANDSEED
5
FFFF
0
ENDSEC
0
SECTION
2
TABLES
0
TABLE
2
VPORT
5
8
100
AcDbSymbolTable
0
ENDTAB
0
TABLE
2
LTYPE
5
5
100
AcDbSymbolTable
0
LTYPE
5
14
100
AcDbSymbolTableRecord
100
AcDbLinetypeTableRecord
2
BYBLOCK
70
0
0
LTYPE
5
15
100
AcDbSymbolTableRecord
100
AcDbLinetypeTableRecord
2
BYLAYER
70
0
0
LTYPE
5
16
100
AcDbSymbolTableRecord
100
AcDbLinetypeTableRecord
2
DASHED
70
0
3
Dashed __ __ __ __ __ __ __ __ __ __ __ __ __ _
72
65
73
2
40
0.75
49
0.5
74
0
49
-0.25
74
0
0
ENDTAB
0
TABLE
2
LAYER
5
2
100
AcDbSymbolTable
70
2
0
LAYER
5
50
100
AcDbSymbolTableRecord
100
AcDbLayerTableRecord
2
0
70
0
62
7
6
CONTINUOUS
0
ENDTAB
0
TABLE
2
STYLE
5
3
100
AcDbSymbolTable
70
1
0
STYLE
5
11
100
AcDbSymbolTableRecord
100
AcDbTextStyleTableRecord
2
STANDARD
70
0
0
ENDTAB
0
TABLE
2
VIEW
5
6
100
AcDbSymbolTable
70
0
0
ENDTAB
0
TABLE
2
UCS
5
7
100
AcDbSymbolTable
70
0
0
ENDTAB
0
TABLE
2
APPID
5
9
100
AcDbSymbolTable
70
2
0
APPID
5
12
100
AcDbSymbolTableRecord
100
AcDbRegAppTableRecord
2
ACAD
70
0
0
ENDTAB
0
TABLE
2
DIMSTYLE
5
A
100
AcDbSymbolTable
70
1
0
ENDTAB
0
TABLE
2
BLOCK_RECORD
5
1
100
AcDbSymbolTable
70
1
0
BLOCK_RECORD
5
1F
100
AcDbSymbolTableRecord
100
AcDbBlockTableRecord
2
*MODEL_SPACE
0
BLOCK_RECORD
5
1B
100
AcDbSymbolTableRecord
100
AcDbBlockTableRecord
2
*PAPER_SPACE
0
ENDTAB
0
ENDSEC
0
SECTION
2
BLOCKS
0
BLOCK
5
20
100
AcDbEntity
100
AcDbBlockBegin
2
*MODEL_SPACE
0
ENDBLK
5
21
100
AcDbEntity
100
AcDbBlockEnd
0
BLOCK
5
1C
100
AcDbEntity
100
AcDbBlockBegin
2
*PAPER_SPACE
0
ENDBLK
5
1D
100
AcDbEntity
100
AcDbBlockEnd
0
ENDSEC
0
SECTION
2
ENTITIES
0
CIRCLE
5
100
100
AcDbEntity
8
0
100
AcDbCircle
10
-643.25250846203119
20
46.391297890822955
30
-7.1054273576010019e-14
40
2.9999999999999711
210
-1.9398670270693528e-17
220
-5.5511151231257827e-17
230
1
0
CIRCLE
5
101
100
AcDbEntity
8
0
100
AcDbCircle
10
-555.02562058623926
20
-165.683070847382
30
-3.5527136788005009e-14
40
2.9999999999999711
210
-1.9398670270693528e-17
220
-5.5511151231257827e-17
230
1
0
CIRCLE
5
102
100
AcDbEntity
8
0
100
AcDbCircle
10
-585.02562058623948
20
-165.68307084738206
30
-7.1054273576010019e-14
40
2.9999999999999711
210
-1.9398670270693528e-17
220
-5.5511151231257827e-17
230
1
0
CIRCLE
5
103
100
AcDbEntity
8
0
100
AcDbCircle
10
-701.47939633782266
20
46.39129789082277
30
-3.5527136788005009e-14
40
2.9999999999999711
210
-1.9398670270693528e-17
220
-5.5511151231257827e-17
230
1
0
CIRCLE
5
104
100
AcDbEntity
8
0
100
AcDbCircle
10
-724.70426307422474
20
-165.68307084738225
30
0
40
2.9999999999999711
210
-1.9398670270693528e-17
220
-5.5511151231257827e-17
230
1
0
CIRCLE
5
105
100
AcDbEntity
8
0
100
AcDbCircle
10
-759.7062842136138
20
46.391297890822649
30
-7.1054273576010019e-14
40
2.9999999999999711
210
-1.9398670270693528e-17
220
-5.5511151231257827e-17
230
1
0
CIRCLE
5
106
100
AcDbEntity
8
0
100
AcDbCircle
10
-782.93115095001576
20
-94.991614601313728
30
-3.5527136788005009e-14
40
2.9999999999999711
210
-1.9398670270693528e-17
220
-5.5511151231257827e-17
230
1
0
CIRCLE
5
107
100
AcDbEntity
8
0
100
AcDbCircle
10
-654.86494183023194
20
-165.68307084738208
30
-3.5527136788005009e-14
40
2.9999999999999711
210
-1.9398670270693611e-17
220
-5.5511151231257827e-17
230
1
0
CIRCLE
5
108
100
AcDbEntity
8
0
100
AcDbCircle
10
-771.31871758181478
20
-24.300158355245536
30
-7.1054273576010019e-14
40
2.9999999999999711
210
-1.9398670270693611e-17
220
-5.5511151231257827e-17
230
1
0
CIRCLE
5
109
100
AcDbEntity
8
0
100
AcDbCircle
10
-794.54358431821731
20
-165.6830708473824
30
-7.1054273576010019e-14
40
2.9999999999999711
210
-1.9398670270693528e-17
220
-5.5511151231257827e-17
230
1
0
CIRCLE
5
110
100
AcDbEntity
8
0
100
AcDbCircle
10
-600.0256205862396
20
46.39129789082304
30
-7.1054273576010019e-14
40
2.9999999999999711
210
-1.9398670270693528e-17
220
-5.5511151231257827e-17
230
1
0
SPLINE
5
111
100
AcDbEntity
8
0
100
AcDbSpline
70
0
71
3
72
17
73
13
74
0
42
0.000000001
43
0.0000000001
44
0.0000000001
40
1.7102410771039789
40
1.7102410771039789
40
1.7102410771039789
40
1.7102410771039789
40
2.3333234469472051
40
2.3333234469472051
40
2.3333234469472051
40
2.7530759768302744
40
2.7530759768302744
40
2.7530759768302744
40
3.0580018268022351
40
3.0580018268022351
40
3.0580018268022351
40
3.2810374038988583
40
3.2810374038988583
40
3.2810374038988583
40
3.2810374038988583
10
-583.83512686842846
20
-19.39404714415522
30
-3.5527136788005009e-14
10
-584.09435363209934
20
-22.076494541591938
30
-3.5527136788005009e-14
10
-583.95128695076971
20
-24.745247567542314
30
0
10
-583.25914902465217
20
-27.20241699890046
30
-3.5527136788005009e-14
10
-582.79287576837487
20
-28.85774081334807
30
-7.1054273576010019e-14
10
-582.08596575787817
20
-30.447391556666421
30
-7.1054273576010019e-14
10
-580.8728933035884
20
-31.852310275222209
30
-3.5527136788005009e-14
10
-579.99166657386536
20
-32.872902180925493
30
0
10
-578.79378632955263
20
-33.79507327622683
30
0
10
-577.33535349743704
20
-34.300842850455822
30
-3.5527136788005009e-14
10
-576.26859445291029
20
-34.670783965243089
30
-3.5527136788005009e-14
10
-575.08850623139426
20
-34.795361991719091
30
-3.5527136788005009e-14
10
-573.9859025015113
20
-34.671251531716472
30
-3.5527136788005009e-14
0
LINE
5
112
100
AcDbEntity
8
0
100
AcDbLine
10
-573.9859025015113
20
-34.671251531716472
30
-3.5527136788005009e-14
11
-552.16823755743519
21
-34.6712515317165
31
6.6310248910753524e-18
0
LINE
5
113
100
AcDbEntity
8
0
100
AcDbLine
10
-552.16823755743519
20
-34.6712515317165
30
6.6310248910753524e-18
11
-525.02562058623971
21
-180.68307084738132
31
-2.6645352591003757e-14
0
LINE
5
114
100
AcDbEntity
8
0
100
AcDbLine
10
-525.02562058623971
20
-180.68307084738132
30
-2.6645352591003757e-14
11
-812.2086590025873
21
-180.68307084738188
31
-4.2601812287762049e-14
0
LINE
5
115
100
AcDbEntity
8
0
100
AcDbLine
10
-812.2086590025873
20
-180.68307084738188
30
-4.2601812287762049e-14
11
-782.30735135885095
21
1.3431172886599896
31
-5.3290705182007514e-14
0
LINE
5
116
100
AcDbEntity
8
0
100
AcDbLine
10
-782.30735135885095
20
1.3431172886599896
30
-5.3290705182007514e-14
11
-764.45666446877442
21
-19.219359071909906
31
-3.5527136788005009e-14
0
LINE
5
117
100
AcDbEntity
8
0
100
AcDbLine
10
-764.45666446877442
20
-19.219359071909906
30
-3.5527136788005009e-14
11
-669.64297938126583
21
-41.38724794658016
31
-3.5527136788005009e-14
0
ELLIPSE
5
118
100
AcDbEntity
8
0
100
AcDbEllipse
10
-684.35429085397391
20
-24.441065636996395
30
-3.5527136788005009e-14
11
-27.629503971124322
21
15.466509138608176
31
0.0
40
0.32213343452801602
41
2.3007420249348161
42
3.8715383517297051
0
LINE
5
119
100
AcDbEntity
8
0
100
AcDbLine
10
-660.44216180736146
20
-30.031834722417408
30
-3.5527136788005009e-14
11
-710.70619422554739
21
27.868064858500603
31
-7.1054273576010019e-14
0
LINE
5
120
100
AcDbEntity
8
0
100
AcDbLine
10
-710.70619422554739
20
27.868064858500603
30
-7.1054273576010019e-14
11
-775.4630072762634
21
43.008514618059394
31
-7.3274719625260332e-14
0
LINE
5
121
100
AcDbEntity
8
0
100
AcDbLine
10
-775.4630072762634
20
43.008514618059394
30
-7.3274719625260332e-14
11
-772.44328102909139
21
61.391297890822258
31
-3.5527136788005009e-14
0
LINE
5
122
100
AcDbEntity
8
0
100
AcDbLine
10
-772.44328102909139
20
61.391297890822258
30
-3.5527136788005009e-14
11
-570.02562058624039
21
61.391297890822827
31
-6.623743999247198e-14
0
LINE
5
123
100
AcDbEntity
8
0
100
AcDbLine
10
-570.02562058624039
20
61.391297890822827
30
-6.623743999247198e-14
11
-570.02562058624017
21
45.700318085435555
31
-3.5527136788005009e-14
0
LINE
5
124
100
AcDbEntity
8
0
100
AcDbLine
10
-570.02562058624017
20
45.700318085435555
30
-3.5527136788005009e-14
11
-574.18339276758513
21
44.392378424567966
31
-1.3877787807814457e-16
0
SPLINE
5
125
100
AcDbEntity
8
0
100
AcDbSpline
70
0
71
3
72
11
73
7
74
0
42
0.000000001
43
0.0000000001
44
0.0000000001
40
0.82986965687323966
40
0.82986965687323966
40
0.82986965687323966
40
0.82986965687323966
40
1.5799125418792719
40
1.5799125418792719
40
1.5799125418792719
40
1.7102410771039844
40
1.7102410771039844
40
1.7102410771039844
40
1.7102410771039844
10
-574.18339276758525
20
44.392378424567923
30
-3.5527136788005009e-14
10
-575.89176438252832
20
41.834774277970901
30
-3.5527136788005009e-14
10
-576.9725972276317
20
38.732430686532844
30
-7.1054273576010019e-14
10
-577.49394924751323
20
35.520214325122112
30
-7.1054273576010019e-14
10
-577.58454012764275
20
34.962054969735178
30
-7.1054273576010019e-14
10
-577.65719642842214
20
34.401101272053758
30
-3.5527136788005009e-14
10
-577.71141822322068
20
33.840020655676746
30
-7.1054273576010019e-14
0
LINE
5
126
100
AcDbEntity
8
0
100
AcDbLine
10
-577.71141822322068
20
33.840020655676746
30
-7.1054273576010019e-14
11
-583.83512686842846
21
-19.39404714415522
31
-3.5527136788005009e-14
0
ENDSEC
0
SECTION
2
OBJECTS
0
DICTIONARY
5
C
100
AcDbDictionary
3
ACAD_GROUP
350
D
3
ACAD_MLINESTYLE
350
17
0
DICTIONARY
5
D
100
AcDbDictionary
0
DICTIONARY
5
1A
330
C
100
AcDbDictionary
0
DICTIONARY
5
17
100
AcDbDictionary
0
ENDSEC
0
EOF
