0
SECTION
2
HEADER
9
$INSUNITS
70
4
9
$ACADVER
1
AC1014
9
$HANDSEED
5
FFFF
0
ENDSEC
0
SECTION
2
TABLES
0
TABLE
2
VPORT
5
8
100
AcDbSymbolTable
0
ENDTAB
0
TABLE
2
LTYPE
5
5
100
AcDbSymbolTable
0
LTYPE
5
14
100
AcDbSymbolTableRecord
100
AcDbLinetypeTableRecord
2
BYBLOCK
70
0
0
LTYPE
5
15
100
AcDbSymbolTableRecord
100
AcDbLinetypeTableRecord
2
BYLAYER
70
0
0
LTYPE
5
16
100
AcDbSymbolTableRecord
100
AcDbLinetypeTableRecord
2
DASHED
70
0
3
Dashed __ __ __ __ __ __ __ __ __ __ __ __ __ _
72
65
73
2
40
0.75
49
0.5
74
0
49
-0.25
74
0
0
ENDTAB
0
TABLE
2
LAYER
5
2
100
AcDbSymbolTable
70
2
0
LAYER
5
50
100
AcDbSymbolTableRecord
100
AcDbLayerTableRecord
2
0
70
0
62
7
6
CONTINUOUS
0
ENDTAB
0
TABLE
2
STYLE
5
3
100
AcDbSymbolTable
70
1
0
STYLE
5
11
100
AcDbSymbolTableRecord
100
AcDbTextStyleTableRecord
2
STANDARD
70
0
0
ENDTAB
0
TABLE
2
VIEW
5
6
100
AcDbSymbolTable
70
0
0
ENDTAB
0
TABLE
2
UCS
5
7
100
AcDbSymbolTable
70
0
0
ENDTAB
0
TABLE
2
APPID
5
9
100
AcDbSymbolTable
70
2
0
APPID
5
12
100
AcDbSymbolTableRecord
100
AcDbRegAppTableRecord
2
ACAD
70
0
0
ENDTAB
0
TABLE
2
DIMSTYLE
5
A
100
AcDbSymbolTable
70
1
0
ENDTAB
0
TABLE
2
BLOCK_RECORD
5
1
100
AcDbSymbolTable
70
1
0
BLOCK_RECORD
5
1F
100
AcDbSymbolTableRecord
100
AcDbBlockTableRecord
2
*MODEL_SPACE
0
BLOCK_RECORD
5
1B
100
AcDbSymbolTableRecord
100
AcDbBlockTableRecord
2
*PAPER_SPACE
0
ENDTAB
0
ENDSEC
0
SECTION
2
BLOCKS
0
BLOCK
5
20
100
AcDbEntity
100
AcDbBlockBegin
2
*MODEL_SPACE
0
ENDBLK
5
21
100
AcDbEntity
100
AcDbBlockEnd
0
BLOCK
5
1C
100
AcDbEntity
100
AcDbBlockBegin
2
*PAPER_SPACE
0
ENDBLK
5
1D
100
AcDbEntity
100
AcDbBlockEnd
0
ENDSEC
0
SECTION
2
ENTITIES
0
CIRCLE
5
100
100
AcDbEntity
8
0
100
AcDbCircle
10
601.98067992280062
20
249.89103729544394
30
0
40
3.0000000000000435
210
4.2628017157106474e-18
220
5.5511151231257827e-17
230
1
0
CIRCLE
5
101
100
AcDbEntity
8
0
100
AcDbCircle
10
777.50616235253403
20
179.19958104937561
30
0
40
2.999999999999972
210
4.262801715711075e-18
220
5.5511151231257827e-17
230
1
0
CIRCLE
5
102
100
AcDbEntity
8
0
100
AcDbCircle
10
762.92137930424383
20
391.27394978758048
30
0
40
3.0000000000001141
210
2.2024475531171722e-17
220
1.6653345369377348e-16
230
1
0
CIRCLE
5
103
100
AcDbEntity
8
0
100
AcDbCircle
10
670.83859624532113
20
391.27394978758042
30
0
40
3.0000000000001141
210
2.2024475531171722e-17
220
1.6653345369377348e-16
230
1
0
CIRCLE
5
104
100
AcDbEntity
8
0
100
AcDbCircle
10
855.00416236316653
20
391.27394978758036
30
-7.1054273576010019e-14
40
2.999999999999972
210
4.262801715711075e-18
220
5.5511151231257827e-17
230
1
0
CIRCLE
5
105
100
AcDbEntity
8
0
100
AcDbCircle
10
984.88445181486418
20
261.47046439801403
30
-7.1054273576010019e-14
40
2.999999999999972
210
4.262801715711075e-18
220
5.5511151231257827e-17
230
1
0
CIRCLE
5
106
100
AcDbEntity
8
0
100
AcDbCircle
10
1003.7832050112515
20
196.56872170323081
30
0
40
2.999999999999972
210
4.262801715711075e-18
220
5.5511151231257827e-17
230
1
0
CIRCLE
5
107
100
AcDbEntity
8
0
100
AcDbCircle
10
578.75581318639843
20
391.27394978758036
30
-7.1054273576010019e-14
40
2.999999999999972
210
4.262801715711075e-18
220
5.5511151231257827e-17
230
1
0
CIRCLE
5
108
100
AcDbEntity
8
0
100
AcDbCircle
10
947.08694542208946
20
391.27394978758048
30
0
40
2.999999999999972
210
4.262801715711075e-18
220
5.5511151231257827e-17
230
1
0
CIRCLE
5
109
100
AcDbEntity
8
0
100
AcDbCircle
10
590.3682465545993
20
320.58249354151212
30
-1.4210854715202004e-13
40
3.0000000000000435
210
4.2628017157106474e-18
220
5.5511151231257827e-17
230
1
0
CIRCLE
5
110
100
AcDbEntity
8
0
100
AcDbCircle
10
965.98569861847682
20
326.37220709279717
30
-7.1054273576010019e-14
40
2.999999999999972
210
4.262801715711075e-18
220
5.5511151231257827e-17
230
1
0
LINE
5
111
100
AcDbEntity
8
0
100
AcDbLine
10
958.34209247551235
20
406.27394978758048
30
-7.1054273576010019e-14
11
1028.8317828905947
21
164.19958104937618
31
-3.5527136788005009e-14
0
LINE
5
112
100
AcDbEntity
8
0
100
AcDbLine
10
1028.8317828905947
20
164.19958104937618
30
-3.5527136788005009e-14
11
747.91978890688722
21
164.19958104937609
31
1.7922217287551355e-14
0
LINE
5
113
100
AcDbEntity
8
0
100
AcDbLine
10
747.91978890688722
20
164.19958104937609
30
1.7922217287551355e-14
11
745.98734630054821
21
188.49497722188059
31
-7.3274719625260332e-14
0
ELLIPSE
5
114
100
AcDbEntity
8
0
100
AcDbEllipse
10
717.14144454982443
20
170.1715161245242
30
0
11
-1.0809897054558994e-14
21
-50.028702872562249
31
0.0
40
0.6196442885790201
41
1.9457817532551256
42
3.6165824074796569
0
LINE
5
115
100
AcDbEntity
8
0
100
AcDbLine
10
702.96423515354729
20
214.66191189051153
30
-2.7382635486346532e-15
11
590.99204614576502
21
224.2477616515387
31
-7.1054273576010019e-14
0
LINE
5
116
100
AcDbEntity
8
0
100
AcDbLine
10
590.99204614576502
20
224.2477616515387
30
-7.1054273576010019e-14
11
561.09073850202833
21
406.27394978758036
31
-1.0658141036401503e-13
0
LINE
5
117
100
AcDbEntity
8
0
100
AcDbLine
10
561.09073850202833
20
406.27394978758036
30
-1.0658141036401503e-13
11
958.34209247551235
21
406.27394978758048
31
-7.1054273576010019e-14
0
ENDSEC
0
SECTION
2
OBJECTS
0
DICTIONARY
5
C
100
AcDbDictionary
3
ACAD_GROUP
350
D
3
ACAD_MLINESTYLE
350
17
0
DICTIONARY
5
D
100
AcDbDictionary
0
DICTIONARY
5
1A
330
C
100
AcDbDictionary
0
DICTIONARY
5
17
100
AcDbDictionary
0
ENDSEC
0
EOF
