0
SECTION
2
HEADER
9
$INSUNITS
70
4
9
$ACADVER
1
AC1014
9
$HANDSEED
5
FFFF
0
ENDSEC
0
SECTION
2
TABLES
0
TABLE
2
VPORT
5
8
100
AcDbSymbolTable
0
ENDTAB
0
TABLE
2
LTYPE
5
5
100
AcDbSymbolTable
0
LTYPE
5
14
100
AcDbSymbolTableRecord
100
AcDbLinetypeTableRecord
2
BYBLOCK
70
0
0
LTYPE
5
15
100
AcDbSymbolTableRecord
100
AcDbLinetypeTableRecord
2
BYLAYER
70
0
0
LTYPE
5
16
100
AcDbSymbolTableRecord
100
AcDbLinetypeTableRecord
2
DASHED
70
0
3
Dashed __ __ __ __ __ __ __ __ __ __ __ __ __ _
72
65
73
2
40
0.75
49
0.5
74
0
49
-0.25
74
0
0
ENDTAB
0
TABLE
2
LAYER
5
2
100
AcDbSymbolTable
70
2
0
LAYER
5
50
100
AcDbSymbolTableRecord
100
AcDbLayerTableRecord
2
0
70
0
62
7
6
CONTINUOUS
0
ENDTAB
0
TABLE
2
STYLE
5
3
100
AcDbSymbolTable
70
1
0
STYLE
5
11
100
AcDbSymbolTableRecord
100
AcDbTextStyleTableRecord
2
STANDARD
70
0
0
ENDTAB
0
TABLE
2
VIEW
5
6
100
AcDbSymbolTable
70
0
0
ENDTAB
0
TABLE
2
UCS
5
7
100
AcDbSymbolTable
70
0
0
ENDTAB
0
TABLE
2
APPID
5
9
100
AcDbSymbolTable
70
2
0
APPID
5
12
100
AcDbSymbolTableRecord
100
AcDbRegAppTableRecord
2
ACAD
70
0
0
ENDTAB
0
TABLE
2
DIMSTYLE
5
A
100
AcDbSymbolTable
70
1
0
ENDTAB
0
TABLE
2
BLOCK_RECORD
5
1
100
AcDbSymbolTable
70
1
0
BLOCK_RECORD
5
1F
100
AcDbSymbolTableRecord
100
AcDbBlockTableRecord
2
*MODEL_SPACE
0
BLOCK_RECORD
5
1B
100
AcDbSymbolTableRecord
100
AcDbBlockTableRecord
2
*PAPER_SPACE
0
ENDTAB
0
ENDSEC
0
SECTION
2
BLOCKS
0
BLOCK
5
20
100
AcDbEntity
100
AcDbBlockBegin
2
*MODEL_SPACE
0
ENDBLK
5
21
100
AcDbEntity
100
AcDbBlockEnd
0
BLOCK
5
1C
100
AcDbEntity
100
AcDbBlockBegin
2
*PAPER_SPACE
0
ENDBLK
5
1D
100
AcDbEntity
100
AcDbBlockEnd
0
ENDSEC
0
SECTION
2
ENTITIES
0
CIRCLE
5
100
100
AcDbEntity
8
0
100
AcDbCircle
10
1208.8690513684496
20
-418.27047973587122
30
-8.1712414612411521e-13
40
3.0000000000000426
210
7.2164496600635146e-16
220
1.3183898417423739e-16
230
1
0
CIRCLE
5
101
100
AcDbEntity
8
0
100
AcDbCircle
10
1116.4399789467795
20
-253.15432807392713
30
-7.7271522513910895e-13
40
2.9999999999999711
210
7.2164496600635136e-16
220
1.3183898417423741e-16
230
1
0
LINE
5
102
100
AcDbEntity
8
0
100
AcDbLine
10
1318.6864367937328
20
-44.921830971151692
30
-9.50350909079134e-13
11
1069.6156845421783
21
-5.7739468947554684
31
-7.7577147180658733e-13
6
DASHED
0
LINE
5
103
100
AcDbEntity
8
0
100
AcDbLine
10
1069.6156845421783
20
-5.7739468947554684
30
-7.7577147180658733e-13
11
1105.3223690998416
21
-284.40736384577718
31
-7.6174802765510409e-13
0
LINE
5
104
100
AcDbEntity
8
0
100
AcDbLine
10
1105.3223690998416
20
-284.40736384577718
30
-7.6174802765510409e-13
11
1129.6663291896718
21
-283.2359472885754
31
-7.8155557556253959e-13
0
ELLIPSE
5
105
100
AcDbEntity
8
0
100
AcDbEllipse
10
1115.1580947653083
20
-314.17696227332402
30
-7.638334409421077e-13
11
-49.622902280982366
21
-6.3591414768970713
31
0.0
40
0.61964428857901999
41
2.6666028996999285
42
4.3374035539244611
0
LINE
5
106
100
AcDbEntity
8
0
100
AcDbLine
10
1161.0896762354446
20
-322.58400725549768
30
-7.9587135922038528e-13
11
1184.830541162034
21
-432.42949400562748
31
-7.9312935180675966e-13
0
LINE
5
107
100
AcDbEntity
8
0
100
AcDbLine
10
1184.830541162034
20
-432.42949400562748
30
-7.9312935180675966e-13
11
1369.1810012488859
21
-438.95093801053071
31
-9.315363786797885e-13
6
DASHED
0
LINE
5
108
100
AcDbEntity
8
0
100
AcDbLine
10
1369.1810012488859
20
-438.95093801053071
30
-9.315363786797885e-13
11
1318.6864367937328
21
-44.921830971151692
31
-9.50350909079134e-13
6
DASHED
0
CIRCLE
5
109
100
AcDbEntity
8
0
100
AcDbCircle
10
1926.831452734215
20
-463.07443448305389
30
-1.3322676295501878e-12
40
2.9999999999999711
210
7.2164496600635155e-16
220
1.3183898417423739e-16
230
1
0
CIRCLE
5
110
100
AcDbEntity
8
0
100
AcDbCircle
10
1776.0830703504557
20
-509.43790691740963
30
-1.2256862191861728e-12
40
3.0000000000000067
210
7.2164496600635155e-16
220
1.3183898417423739e-16
230
1
0
CIRCLE
5
111
100
AcDbEntity
8
0
100
AcDbCircle
10
1696.2993851503393
20
-518.28240621140992
30
-1.1635137298071641e-12
40
3.0000000000000067
210
7.2164496600635155e-16
220
1.3183898417423739e-16
230
1
0
CIRCLE
5
112
100
AcDbEntity
8
0
100
AcDbCircle
10
1625.5153437457075
20
-378.17551074151135
30
-1.127986593019159e-12
40
3.0000000000000067
210
7.2164496600635155e-16
220
1.3183898417423739e-16
230
1
0
CIRCLE
5
113
100
AcDbEntity
8
0
100
AcDbCircle
10
1851.4572615423356
20
-486.25617070023173
30
-1.2789769243681803e-12
40
2.9999999999999889
210
7.2164496600635155e-16
220
1.3183898417423739e-16
230
1
0
CIRCLE
5
114
100
AcDbEntity
8
0
100
AcDbCircle
10
1631.0880222690625
20
-187.71907210917811
30
-1.1546319456101628e-12
40
2.9999999999999711
210
7.2164496600635155e-16
220
1.3183898417423739e-16
230
1
0
LINE
5
115
100
AcDbEntity
8
0
100
AcDbLine
10
1956.0482727853978
20
-469.78204540975298
30
-1.3500311979441904e-12
11
1618.1789553023643
21
-155.20488572702368
31
-1.1457177423884431e-12
0
LINE
5
116
100
AcDbEntity
8
0
100
AcDbLine
10
1692.8438225435398
20
-550.73198384639136
30
-1.1457501614131615e-12
11
1956.0482727853978
21
-469.78204540975298
31
-1.3500311979441904e-12
0
LINE
5
117
100
AcDbEntity
8
0
100
AcDbLine
10
1604.2372470637274
20
-368.73807174794297
30
-1.1102230246251565e-12
11
1692.8438225435398
21
-550.73198384639136
31
-1.1457501614131615e-12
6
DASHED
0
LINE
5
118
100
AcDbEntity
8
0
100
AcDbLine
10
1609.8081872498242
20
-283.41275961922702
30
-1.127986593019159e-12
11
1604.2372470637274
21
-368.73807174794297
31
-1.1102230246251565e-12
0
ARC
5
119
100
AcDbEntity
8
0
100
AcDbCircle
10
1608.120840766195
20
-252.45871526563431
30
-1.127986593019159e-12
40
31
210
7.2667238881167393e-16
220
3.961188677011935e-17
230
1
100
AcDbArc
50
-86.879818275174244
51
79.40867160147404
0
LINE
5
120
100
AcDbEntity
8
0
100
AcDbLine
10
1618.1789553023643
20
-155.20488572702368
30
-1.1457177423884431e-12
11
1613.8187208457068
21
-221.98685673026588
31
-1.1361158183706507e-12
0
CIRCLE
5
121
100
AcDbEntity
8
0
100
AcDbCircle
10
1527.6842446934766
20
-407.25985966879847
30
-1.0480505352461478e-12
40
2.9999999999999711
210
7.2164496600635155e-16
220
1.3183898417423739e-16
230
1
0
CIRCLE
5
122
100
AcDbEntity
8
0
100
AcDbCircle
10
1621.8145578377803
20
-439.10788826346447
30
-1.1102230246251565e-12
40
2.9999999999999711
210
7.2164496600635155e-16
220
1.3183898417423739e-16
230
1
0
CIRCLE
5
123
100
AcDbEntity
8
0
100
AcDbCircle
10
1482.1149205157853
20
-636.6453052117763
30
-9.8587804586713901e-13
40
2.9999999999999711
210
7.2164496600635155e-16
220
1.3183898417423739e-16
230
1
0
CIRCLE
5
124
100
AcDbEntity
8
0
100
AcDbCircle
10
1596.3262426174906
20
-386.75603768556101
30
-1.1013412404281553e-12
40
2.9999999999999711
210
7.2164496600635155e-16
220
1.3183898417423739e-16
230
1
0
CIRCLE
5
125
100
AcDbEntity
8
0
100
AcDbCircle
10
1666.2250683593293
20
-530.32507507312164
30
-1.1368683772161603e-12
40
2.9999999999999711
210
7.2164496600635155e-16
220
1.3183898417423739e-16
230
1
0
CIRCLE
5
126
100
AcDbEntity
8
0
100
AcDbCircle
10
1495.2471603538447
20
-663.61833390407753
30
-9.8587804586713901e-13
40
2.9999999999999711
210
7.2164496600635155e-16
220
1.3183898417423739e-16
230
1
0
CIRCLE
5
127
100
AcDbEntity
8
0
100
AcDbCircle
10
1451.5433632923393
20
-573.85270468627527
30
-9.7699626167013776e-13
40
2.9999999999999711
210
7.2164496600635155e-16
220
1.3183898417423739e-16
230
1
0
CIRCLE
5
128
100
AcDbEntity
8
0
100
AcDbCircle
10
1420.9718060688931
20
-511.06010416077396
30
-9.681144774731365e-13
40
2.9999999999999711
210
7.2164496600635155e-16
220
1.3183898417423739e-16
230
1
0
LINE
5
129
100
AcDbEntity
8
0
100
AcDbLine
10
1614.1646499405797
20
-573.67892775385019
30
-1.092459456231154e-12
11
1664.7080515672471
21
-555.88200852343607
31
-1.130799009926565e-12
0
SPLINE
5
130
100
AcDbEntity
8
0
100
AcDbSpline
70
0
71
3
72
11
73
7
74
0
42
0.000000001
43
0.0000000001
44
0.0000000001
40
0.82986965687323966
40
0.82986965687323966
40
0.82986965687323966
40
0.82986965687323966
40
1.5799125418792719
40
1.5799125418792719
40
1.5799125418792719
40
1.7102410771039844
40
1.7102410771039844
40
1.7102410771039844
40
1.7102410771039844
10
1675.7400490775774
20
-554.43485648223384
30
-1.1368683772161603e-12
10
1672.6926798839215
20
-554.018426964799
30
-1.1368683772161603e-12
10
1669.4302345888555
20
-554.40467312347482
30
-1.1368683772161603e-12
10
1666.3139104606103
20
-555.34204487943248
30
-1.127986593019159e-12
10
1665.7724134781861
20
-555.50492394989271
30
-1.127986593019159e-12
10
1665.236254806513
20
-555.68515121690598
30
-1.1368683772161603e-12
10
1664.7080515672471
20
-555.88200852343596
30
-1.1368683772161603e-12
0
LINE
5
131
100
AcDbEntity
8
0
100
AcDbLine
10
1675.7400490775774
20
-554.43485648223384
30
-1.1368683772161603e-12
11
1678.7360475935045
21
-557.6005741830088
31
-1.1429434512946071e-12
0
LINE
5
132
100
AcDbEntity
8
0
100
AcDbLine
10
1678.7360475935045
20
-557.6005741830088
30
-1.1429434512946071e-12
11
1692.8438225435386
21
-550.73198384639227
31
-1.1559889491770623e-12
0
LINE
5
133
100
AcDbEntity
8
0
100
AcDbLine
10
1604.237247063726
20
-368.73807174794433
30
-1.1102230246251565e-12
11
1692.8438225435386
21
-550.73198384639227
31
-1.1559889491770623e-12
6
DASHED
0
LINE
5
134
100
AcDbEntity
8
0
100
AcDbLine
10
1586.3874100642684
20
-374.06993695198167
30
-1.092459456231154e-12
11
1604.237247063726
21
-368.73807174794433
31
-1.1102230246251565e-12
0
LINE
5
135
100
AcDbEntity
8
0
100
AcDbLine
10
1601.1213505426504
20
-438.92045008323305
30
-1.092459456231154e-12
11
1586.3874100642684
21
-374.06993695198167
31
-1.092459456231154e-12
0
LINE
5
136
100
AcDbEntity
8
0
100
AcDbLine
10
1571.0661397515221
20
-509.45806863332075
30
-1.0658141036401503e-12
11
1601.1213505426504
21
-438.92045008323305
31
-1.092459456231154e-12
0
ELLIPSE
5
137
100
AcDbEntity
8
0
100
AcDbEllipse
10
1565.6254784606672
20
-485.51133985407967
30
-1.0658141036401503e-12
11
1.8113774003332521
21
31.612043694430547
31
0.0
40
0.32213343452801618
41
2.3007420249348369
42
3.8715383517296957
0
LINE
5
138
100
AcDbEntity
8
0
100
AcDbLine
10
1535.2562004305159
20
-411.20546236040968
30
-1.0480505352461478e-12
11
1556.8288987583549
21
-506.15633841686866
31
-1.0567442805411063e-12
0
LINE
5
139
100
AcDbEntity
8
0
100
AcDbLine
10
1545.9299592086436
20
-386.15484699725141
30
-1.0658141036401503e-12
11
1535.2562004305159
21
-411.20546236040968
31
-1.0480505352461478e-12
0
LINE
5
140
100
AcDbEntity
8
0
100
AcDbLine
10
1369.1810012488845
20
-438.95093801053093
30
-9.2370555648813024e-13
11
1545.9299592086436
21
-386.15484699725141
31
-1.0658141036401503e-12
6
DASHED
0
LINE
5
141
100
AcDbEntity
8
0
100
AcDbLine
10
1494.8928858457539
20
-697.15748251540742
30
-9.8587804586713901e-13
11
1369.1810012488845
21
-438.95093801053093
31
-9.2370555648813024e-13
0
LINE
5
142
100
AcDbEntity
8
0
100
AcDbLine
10
1614.2908070430262
20
-608.83812195564485
30
-1.0835776720341528e-12
11
1494.8928858457539
21
-697.15748251540742
31
-9.8587804586713901e-13
0
LINE
5
143
100
AcDbEntity
8
0
100
AcDbLine
10
1604.7403134179585
20
-589.22183853779245
30
-1.0835776720341528e-12
11
1614.2908070430262
21
-608.83812195564485
31
-1.0835776720341528e-12
0
SPLINE
5
144
100
AcDbEntity
8
0
100
AcDbSpline
70
0
71
3
72
17
73
13
74
0
42
0.000000001
43
0.0000000001
44
0.0000000001
40
1.7102410771039789
40
1.7102410771039789
40
1.7102410771039789
40
1.7102410771039789
40
2.3333234469472051
40
2.3333234469472051
40
2.3333234469472051
40
2.7530759768302744
40
2.7530759768302744
40
2.7530759768302744
40
3.0580018268022351
40
3.0580018268022351
40
3.0580018268022351
40
3.2810374038988583
40
3.2810374038988583
40
3.2810374038988583
40
3.2810374038988583
10
1614.1646499405795
20
-573.67892775385008
30
-1.092459456231154e-12
10
1611.639384652259
20
-574.62007480857687
30
-1.092459456231154e-12
10
1609.3025324532732
20
-575.9169296921018
30
-1.0835776720341528e-12
10
1607.3962664423709
20
-577.61483617328645
30
-1.0835776720341528e-12
10
1606.1120702920161
20
-578.75866654865308
30
-1.0835776720341528e-12
10
1604.9922575150663
20
-580.09010584251996
30
-1.0835776720341528e-12
10
1604.2601056985568
20
-581.79577143186839
30
-1.0835776720341528e-12
10
1603.7282398989159
20
-583.034838483459
30
-1.0835776720341528e-12
10
1603.4234766740096
20
-584.51552615662604
30
-1.0835776720341528e-12
10
1603.607155090732
20
-586.04820075589328
30
-1.0835776720341528e-12
10
1603.7415052013494
20
-587.16926334793106
30
-1.0835776720341528e-12
10
1604.1460703637645
20
-588.28481474728551
30
-1.0835776720341528e-12
10
1604.7403134179585
20
-589.22183853779234
30
-1.0835776720341528e-12
0
CIRCLE
5
145
100
AcDbEntity
8
0
100
AcDbCircle
10
1396.9684903369287
20
-27.183925412938905
30
-1.0036416142611415e-12
40
2.9999999999999711
210
7.2164496600635155e-16
220
1.3183898417423739e-16
230
1
0
CIRCLE
5
146
100
AcDbEntity
8
0
100
AcDbCircle
10
1334.9954066414825
20
-54.1790356085843
30
-9.50350909079134e-13
40
2.9999999999999711
210
7.2164496600635155e-16
220
1.3183898417423739e-16
230
1
0
CIRCLE
5
147
100
AcDbEntity
8
0
100
AcDbCircle
10
1520.9146577278207
20
26.806294978352447
30
-1.1013412404281553e-12
40
2.9999999999999711
210
7.2164496600635155e-16
220
1.3183898417423739e-16
230
1
0
CIRCLE
5
148
100
AcDbEntity
8
0
100
AcDbCircle
10
1458.9415740323748
20
-0.18881521729322598
30
-1.0480505352461478e-12
40
2.9999999999999711
210
7.2164496600635155e-16
220
1.3183898417423739e-16
230
1
0
CIRCLE
5
149
100
AcDbEntity
8
0
100
AcDbCircle
10
1566.9049545874543
20
-195.4275451004961
30
-1.1102230246251565e-12
40
2.9999999999999711
210
7.2164496600635155e-16
220
1.3183898417423739e-16
230
1
0
CIRCLE
5
150
100
AcDbEntity
8
0
100
AcDbCircle
10
1519.0979215744235
20
-378.51485914183388
30
-1.0480505352461478e-12
40
3.0000000000000426
210
7.2164496600635155e-16
220
1.3183898417423739e-16
230
1
0
LINE
5
151
100
AcDbEntity
8
0
100
AcDbLine
10
1318.6864367937312
20
-44.921830971151692
30
-9.50350909079134e-13
11
1369.1810012488845
21
-438.95093801053076
31
-9.3785084553406073e-13
6
DASHED
0
LINE
5
152
100
AcDbEntity
8
0
100
AcDbLine
10
1369.1810012488845
20
-438.95093801053076
30
-9.3785084553406073e-13
11
1545.9299592086431
21
-386.15484699725152
31
-1.062292722733542e-12
6
DASHED
0
LINE
5
153
100
AcDbEntity
8
0
100
AcDbLine
10
1545.9299592086431
20
-386.15484699725152
30
-1.062292722733542e-12
11
1541.2052853347509
21
-273.87244818238446
31
-1.0799011985269914e-12
0
ELLIPSE
5
154
100
AcDbEntity
8
0
100
AcDbEllipse
10
1583.5327405684677
20
-254.15506714133915
30
-1.1102230246251565e-12
11
49.622902280982366
21
6.3591414768970633
31
0.0
40
0.61964428857901976
41
1.9457817532551251
42
3.6165824074796591
0
LINE
5
155
100
AcDbEntity
8
0
100
AcDbLine
10
1585.5440040770886
20
-222.86728503709588
30
-1.1191048088221578e-12
11
1561.6913090100991
21
-227.87223734925149
31
-1.0979263670717007e-12
0
LINE
5
156
100
AcDbEntity
8
0
100
AcDbLine
10
1585.5440040770886
20
-222.86728503709588
30
-1.1191048088221578e-12
11
1549.8373195194254
21
55.766131913925818
31
-1.1288327299268435e-12
0
LINE
5
157
100
AcDbEntity
8
0
100
AcDbLine
10
1549.8373195194254
20
55.766131913925818
30
-1.1288327299268435e-12
11
1318.6864367937312
21
-44.921830971151692
31
-9.50350909079134e-13
0
CIRCLE
5
158
100
AcDbEntity
8
0
100
AcDbCircle
10
1449.4820883702644
20
221.50021167880979
30
-1.0746958878371515e-12
40
2.9999999999999707
210
7.2164496600635155e-16
220
1.3183898417423739e-16
230
1
0
CIRCLE
5
159
100
AcDbEntity
8
0
100
AcDbCircle
10
1604.6452070564928
20
260.54386160505754
30
-1.1901590823981678e-12
40
3.0000000000001128
210
7.2164496600635155e-16
220
1.3183898417423739e-16
230
1
0
CIRCLE
5
160
100
AcDbEntity
8
0
100
AcDbCircle
10
1527.0636477133785
20
241.02203664193394
30
-1.1368683772161603e-12
40
3.0000000000001128
210
7.2164496600635155e-16
220
1.3183898417423739e-16
230
1
0
LINE
5
161
100
AcDbEntity
8
0
100
AcDbLine
10
1606.8738131176167
20
245.54143678840785
30
-1.1901590823981678e-12
11
1434.8247562802064
21
202.24878321081999
31
-1.0607004319674887e-12
0
LINE
5
162
100
AcDbEntity
8
0
100
AcDbLine
10
1786.6418138129609
20
501.38025728402374
30
-1.3500311979441904e-12
11
1606.8738131176167
21
245.54143678840785
31
-1.1901590823981678e-12
0
LINE
5
163
100
AcDbEntity
8
0
100
AcDbLine
10
1785.6382376123806
20
557.36848718344936
30
-1.3589129821411916e-12
11
1786.6418138129609
21
501.38025728402374
31
-1.3500311979441904e-12
0
LINE
5
164
100
AcDbEntity
8
0
100
AcDbLine
10
1428.3360508995245
20
564.2453395193977
30
-1.1013412404281553e-12
11
1785.6382376123806
21
557.36848718344936
31
-1.3589129821411916e-12
0
LINE
5
165
100
AcDbEntity
8
0
100
AcDbLine
10
1434.8247562802064
20
202.24878321081999
30
-1.0607004319674887e-12
11
1428.3360508995245
21
564.2453395193977
31
-1.1013412404281553e-12
6
DASHED
0
LINE
5
166
100
AcDbEntity
8
0
100
AcDbLine
10
1261.3346984632944
20
239.3477272809001
30
-9.4146912488213275e-13
11
1434.8247562802094
21
202.24878321082025
31
-1.058275220424897e-12
6
DASHED
0
LINE
5
167
100
AcDbEntity
8
0
100
AcDbLine
10
1072.5134200017528
20
488.57966934840141
30
-8.3488771451811772e-13
11
1261.3346984632944
21
239.3477272809001
31
-9.4146912488213275e-13
0
LINE
5
168
100
AcDbEntity
8
0
100
AcDbLine
10
1071.5098438011728
20
544.56789924782709
30
-8.4376949871511897e-13
11
1072.5134200017528
21
488.57966934840141
31
-8.3488771451811772e-13
0
LINE
5
169
100
AcDbEntity
8
0
100
AcDbLine
10
1428.3360508995274
20
564.2453395193977
30
-1.1013412404281553e-12
11
1071.5098438011728
21
544.56789924782709
31
-8.4376949871511897e-13
0
LINE
5
170
100
AcDbEntity
8
0
100
AcDbLine
10
1434.8247562802094
20
202.24878321082025
30
-1.058275220424897e-12
11
1428.3360508995274
21
564.2453395193977
31
-1.1013412404281553e-12
6
DASHED
0
CIRCLE
5
171
100
AcDbEntity
8
0
100
AcDbCircle
10
1311.1515366401647
20
-25.685854280291199
30
-9.4146912488213275e-13
40
2.9999999999999711
210
7.2164496600635155e-16
220
1.3183898417423739e-16
230
1
0
CIRCLE
5
172
100
AcDbEntity
8
0
100
AcDbCircle
10
1345.1727810878047
20
46.719635333645783
30
-9.8587804586713901e-13
40
2.9999999999999711
210
7.2164496600635155e-16
220
1.3183898417423739e-16
230
1
0
CIRCLE
5
173
100
AcDbEntity
8
0
100
AcDbCircle
10
1379.1940255354443
20
119.12512494758306
30
-1.0125233984581428e-12
40
3.0000000000001137
210
7.2164496600635155e-16
220
1.3183898417423739e-16
230
1
0
CIRCLE
5
174
100
AcDbEntity
8
0
100
AcDbCircle
10
1413.2152699830842
20
191.53061456151988
30
-1.0391687510491465e-12
40
3.0000000000001137
210
7.2164496600635155e-16
220
1.3183898417423739e-16
230
1
0
LINE
5
175
100
AcDbEntity
8
0
100
AcDbLine
10
1069.6156845421783
20
-5.7739468947529495
30
-7.7271522513910895e-13
11
1318.6864367937326
21
-44.921830971149035
31
-9.4291913294542732e-13
6
DASHED
0
LINE
5
176
100
AcDbEntity
8
0
100
AcDbLine
10
1118.0961875211046
20
97.404364537138136
30
-8.2600593032111647e-13
11
1069.6156845421783
21
-5.7739468947529495
31
-7.7271522513910895e-13
0
LINE
5
177
100
AcDbEntity
8
0
100
AcDbLine
10
1261.3346984632944
20
239.3477272809028
30
-9.4146912488213275e-13
11
1118.0961875211046
21
97.404364537138136
31
-8.2600593032111647e-13
0
LINE
5
178
100
AcDbEntity
8
0
100
AcDbLine
10
1434.8247562802089
20
202.24878321082286
30
-1.056932319443149e-12
11
1261.3346984632944
21
239.3477272809028
31
-9.4146912488213275e-13
6
DASHED
0
LINE
5
179
100
AcDbEntity
8
0
100
AcDbLine
10
1318.6864367937326
20
-44.921830971149035
30
-9.4291913294542732e-13
11
1434.8247562802089
21
202.24878321082286
31
-1.056932319443149e-12
0
CIRCLE
5
180
100
AcDbEntity
8
0
100
AcDbCircle
10
1116.43997894678
20
-253.15432807392685
30
-7.7271522513910895e-13
40
2.9999999999999716
210
7.2164496600635155e-16
220
1.3183898417423739e-16
230
1
0
CIRCLE
5
181
100
AcDbEntity
8
0
100
AcDbCircle
10
1208.8690513684501
20
-418.27047973587082
30
-8.1712414612411521e-13
40
3.0000000000000426
210
7.2164496600635155e-16
220
1.3183898417423739e-16
230
1
0
LINE
5
182
100
AcDbEntity
8
0
100
AcDbLine
10
1318.6864367937328
20
-44.921830971151266
30
-9.50350909079134e-13
11
1369.1810012488861
21
-438.95093801053036
31
-9.3785084553406073e-13
6
DASHED
0
LINE
5
183
100
AcDbEntity
8
0
100
AcDbLine
10
1369.1810012488861
20
-438.95093801053036
30
-9.3785084553406073e-13
11
1184.8305411620343
21
-432.42949400562702
31
-7.9492649767536815e-13
6
DASHED
0
LINE
5
184
100
AcDbEntity
8
0
100
AcDbLine
10
1184.8305411620343
20
-432.42949400562702
30
-7.9492649767536815e-13
11
1161.089676235445
21
-322.58400725549728
31
-7.9327689524276268e-13
0
ELLIPSE
5
185
100
AcDbEntity
8
0
100
AcDbEllipse
10
1115.1580947653085
20
-314.17696227332362
30
-7.638334409421077e-13
11
-49.622902280982366
21
-6.3591414768970704
31
0.0
40
0.61964428857901976
41
2.6666028996999303
42
4.3374035539244611
0
LINE
5
186
100
AcDbEntity
8
0
100
AcDbLine
10
1105.322369099842
20
-284.40736384577667
30
-7.638334409421077e-13
11
1129.6663291896723
21
-283.23594728857472
31
-7.7838246726499913e-13
0
LINE
5
187
100
AcDbEntity
8
0
100
AcDbLine
10
1105.322369099842
20
-284.40736384577667
30
-7.638334409421077e-13
11
1069.6156845421785
21
-5.7739468947549355
31
-7.7356136204679344e-13
0
LINE
5
188
100
AcDbEntity
8
0
100
AcDbLine
10
1069.6156845421785
20
-5.7739468947549355
30
-7.7356136204679344e-13
11
1318.6864367937328
21
-44.921830971151266
31
-9.50350909079134e-13
6
DASHED
0
CIRCLE
5
189
100
AcDbEntity
8
0
100
AcDbCircle
10
1207.8084572154694
20
-448.25172620833553
30
-8.0824236192711396e-13
40
2.9999999999999711
210
7.2164496600635155e-16
220
1.3183898417423739e-16
230
1
0
CIRCLE
5
190
100
AcDbEntity
8
0
100
AcDbCircle
10
1124.7505795812469
20
-502.8063020100941
30
-7.460698725481052e-13
40
2.9999999999999711
210
7.2164496600635155e-16
220
1.3183898417423739e-16
230
1
0
CIRCLE
5
191
100
AcDbEntity
8
0
100
AcDbCircle
10
1309.7465580610969
20
-658.73419466817813
30
-8.6153306710912148e-13
40
2.9999999999999711
210
7.2164496600635155e-16
220
1.3183898417423739e-16
230
1
0
CIRCLE
5
192
100
AcDbEntity
8
0
100
AcDbCircle
10
1136.214349704783
20
-445.71906660449173
30
-7.638334409421077e-13
40
2.9999999999999711
210
7.2164496600635155e-16
220
1.3183898417423739e-16
230
1
0
CIRCLE
5
193
100
AcDbEntity
8
0
100
AcDbCircle
10
1104.7762549039276
20
-602.27436204917183
30
-7.1942451995710144e-13
40
2.9999999999999711
210
7.2164496600635155e-16
220
1.3183898417423739e-16
230
1
0
CIRCLE
5
194
100
AcDbEntity
8
0
100
AcDbCircle
10
1303.8401269215913
20
-688.14701621243489
30
-8.4376949871511897e-13
40
2.9999999999999711
210
7.2164496600635155e-16
220
1.3183898417423739e-16
230
1
0
CIRCLE
5
195
100
AcDbEntity
8
0
100
AcDbCircle
10
1323.496596119679
20
-590.26181158412635
30
-8.7929663550312398e-13
40
2.9999999999999711
210
7.2164496600635155e-16
220
1.3183898417423739e-16
230
1
0
CIRCLE
5
196
100
AcDbEntity
8
0
100
AcDbCircle
10
1337.246634178261
20
-521.78942850007456
30
-8.9706020389712648e-13
40
2.9999999999999711
210
7.2164496600635155e-16
220
1.3183898417423739e-16
230
1
0
LINE
5
197
100
AcDbEntity
8
0
100
AcDbLine
10
1166.0864074866711
20
-631.09985247827558
30
-7.5495165674510645e-13
11
1112.6886274965836
21
-626.6229256061099
31
-7.1917146998283626e-13
0
SPLINE
5
198
100
AcDbEntity
8
0
100
AcDbSpline
70
0
71
3
72
11
73
7
74
0
42
0.000000001
43
0.0000000001
44
0.0000000001
40
0.82986965687323966
40
0.82986965687323966
40
0.82986965687323966
40
0.82986965687323966
40
1.5799125418792719
40
1.5799125418792719
40
1.5799125418792719
40
1.7102410771039844
40
1.7102410771039844
40
1.7102410771039844
40
1.7102410771039844
10
1101.6482056519276
20
-628.00433922640366
30
-7.1054273576010019e-13
10
1104.4920967735629
20
-626.83294867081668
30
-7.1942451995710144e-13
10
1107.7465148801248
20
-626.38406317754072
30
-7.1942451995710144e-13
10
1110.9985040936108
20
-626.50533987158587
30
-7.1942451995710144e-13
10
1111.5635744372312
20
-626.52641308514183
30
-7.1942451995710144e-13
10
1112.1278534519611
20
-626.5656200044391
30
-7.1942451995710144e-13
10
1112.6886274965836
20
-626.6229256061099
30
-7.1942451995710144e-13
0
LINE
5
199
100
AcDbEntity
8
0
100
AcDbLine
10
1101.6482056519276
20
-628.00433922640366
30
-7.1054273576010019e-13
11
1099.5472792879737
21
-631.82322441473809
31
-7.0645023683656563e-13
0
LINE
5
200
100
AcDbEntity
8
0
100
AcDbLine
10
1099.5472792879737
20
-631.82322441473809
30
-7.0645023683656563e-13
11
1084.1634129922941
21
-628.73396802367472
31
-6.9747741944015146e-13
0
LINE
5
201
100
AcDbEntity
8
0
100
AcDbLine
10
1124.015612086479
20
-430.27815055662558
30
-7.5495165674510645e-13
11
1084.1634129922941
21
-628.73396802367472
31
-6.9747741944015146e-13
6
DASHED
0
LINE
5
202
100
AcDbEntity
8
0
100
AcDbLine
10
1142.6331230540657
20
-430.93674970104064
30
-7.638334409421077e-13
11
1124.015612086479
21
-430.27815055662558
31
-7.5495165674510645e-13
0
LINE
5
203
100
AcDbEntity
8
0
100
AcDbLine
10
1144.7278460467253
20
-497.40697003308946
30
-7.638334409421077e-13
11
1142.6331230540657
21
-430.93674970104064
31
-7.638334409421077e-13
0
LINE
5
204
100
AcDbEntity
8
0
100
AcDbLine
10
1191.5984582977924
20
-558.08659621541642
30
-7.9047879353311146e-13
11
1144.7278460467253
21
-497.40697003308946
31
-7.638334409421077e-13
0
ELLIPSE
5
205
100
AcDbEntity
8
0
100
AcDbEllipse
10
1190.8249599713977
20
-533.54177364837778
30
-7.9047879353311146e-13
11
-9.7240636860783489
21
30.133784695157637
31
0.0
40
0.32213343452801629
41
2.4116469554498705
42
3.9824432822447671
0
LINE
5
206
100
AcDbEntity
8
0
100
AcDbLine
10
1201.4760943217782
20
-453.9791579596822
30
-7.9936057773011271e-13
11
1204.5430829028262
21
-551.30152824563811
31
-7.9803697988434659e-13
0
LINE
5
207
100
AcDbEntity
8
0
100
AcDbLine
10
1184.830541162034
20
-432.42949400562748
30
-7.9936057773011271e-13
11
1201.4760943217782
21
-453.9791579596822
31
-7.9936057773011271e-13
0
LINE
5
208
100
AcDbEntity
8
0
100
AcDbLine
10
1369.1810012488861
20
-438.9509380105311
30
-9.2370555648813024e-13
11
1184.830541162034
21
-432.42949400562748
31
-7.9936057773011271e-13
6
DASHED
0
LINE
5
209
100
AcDbEntity
8
0
100
AcDbLine
10
1312.6401065542134
20
-720.5130533264437
30
-8.4376949871511897e-13
11
1369.1810012488861
21
-438.9509380105311
31
-9.2370555648813024e-13
0
LINE
5
210
100
AcDbEntity
8
0
100
AcDbLine
10
1174.829986994296
20
-665.15472980778384
30
-7.5495165674510645e-13
11
1312.6401065542134
21
-720.5130533264437
31
-8.4376949871511897e-13
0
LINE
5
211
100
AcDbEntity
8
0
100
AcDbLine
10
1179.1254715148623
20
-643.76409362403422
30
-7.638334409421077e-13
11
1174.829986994296
21
-665.15472980778384
31
-7.5495165674510645e-13
0
SPLINE
5
212
100
AcDbEntity
8
0
100
AcDbSpline
70
0
71
3
72
17
73
13
74
0
42
0.000000001
43
0.0000000001
44
0.0000000001
40
1.7102410771039789
40
1.7102410771039789
40
1.7102410771039789
40
1.7102410771039789
40
2.3333234469472051
40
2.3333234469472051
40
2.3333234469472051
40
2.7530759768302744
40
2.7530759768302744
40
2.7530759768302744
40
3.0580018268022351
40
3.0580018268022351
40
3.0580018268022351
40
3.2810374038988583
40
3.2810374038988583
40
3.2810374038988583
40
3.2810374038988583
10
1166.0864074866711
20
-631.09985247827535
30
-7.5495165674510645e-13
10
1168.767389207731
20
-631.37382248824053
30
-7.638334409421077e-13
10
1171.3557406409425
20
-632.03951584634058
30
-7.638334409421077e-13
10
1173.6285480072386
20
-633.20187689131808
30
-7.638334409421077e-13
10
1175.1596724429689
20
-633.9849258313634
30
-7.638334409421077e-13
10
1176.5790323873721
20
-634.99097185262553
30
-7.7271522513910895e-13
10
1177.7176222085245
20
-636.45690316215973
30
-7.638334409421077e-13
10
1178.5447416283432
20
-637.52181717395797
30
-7.638334409421077e-13
10
1179.2130235177754
20
-638.87780977164471
30
-7.638334409421077e-13
10
1179.4217560889363
20
-640.40727369790943
30
-7.638334409421077e-13
10
1179.5744318606755
20
-641.52598786882777
30
-7.638334409421077e-13
10
1179.4642345754137
20
-642.70750572885481
30
-7.638334409421077e-13
10
1179.1254715148621
20
-643.76409362403388
30
-7.638334409421077e-13
0
CIRCLE
5
213
100
AcDbEntity
8
0
100
AcDbCircle
10
835.63329798936047
20
-602.91074244545405
30
-5.2402526762307389e-13
40
2.9999999999999707
210
7.2164496600635155e-16
220
1.3183898417423739e-16
230
1
0
CIRCLE
5
214
100
AcDbEntity
8
0
100
AcDbCircle
10
993.2013267516453
20
-609.76367462512871
30
-6.3060667798708891e-13
40
3.0000000000000062
210
7.2164496600635155e-16
220
1.3183898417423739e-16
230
1
0
CIRCLE
5
215
100
AcDbEntity
8
0
100
AcDbCircle
10
1072.637103431824
20
-598.20430720776483
30
-6.9277916736609768e-13
40
3.0000000000000062
210
7.2164496600635155e-16
220
1.3183898417423739e-16
230
1
0
CIRCLE
5
216
100
AcDbEntity
8
0
100
AcDbCircle
10
1105.8048147739059
20
-444.77606469643933
30
-7.3718808835110394e-13
40
3.0000000000000062
210
7.2164496600635155e-16
220
1.3183898417423739e-16
230
1
0
CIRCLE
5
217
100
AcDbEntity
8
0
100
AcDbCircle
10
914.41731237050294
20
-606.33720853529144
30
-5.8619775700208265e-13
40
2.9999999999999889
210
7.2164496600635155e-16
220
1.3183898417423739e-16
230
1
0
CIRCLE
5
218
100
AcDbEntity
8
0
100
AcDbCircle
10
1052.3871617557465
20
-261.87919728622961
30
-7.2830630415410269e-13
40
2.9999999999999707
210
7.2164496600635155e-16
220
1.3183898417423739e-16
230
1
0
LINE
5
219
100
AcDbEntity
8
0
100
AcDbLine
10
809.0519608475272
20
-616.76884960333621
30
-5.0626169922907138e-13
11
1056.6803862613197
21
-227.16054884783398
31
-7.3273715786685723e-13
0
LINE
5
220
100
AcDbEntity
8
0
100
AcDbLine
10
1084.1634129922927
20
-628.73396802367381
30
-7.0166095156309893e-13
11
809.0519608475272
21
-616.76884960333621
31
-5.0626169922907138e-13
0
LINE
5
221
100
AcDbEntity
8
0
100
AcDbLine
10
1124.0156120864772
20
-430.27815055662427
30
-7.5495165674510645e-13
11
1084.1634129922927
21
-628.73396802367381
31
-7.0166095156309893e-13
6
DASHED
0
LINE
5
222
100
AcDbEntity
8
0
100
AcDbLine
10
1097.1092596461297
20
-349.11478158529792
30
-7.460698725481052e-13
11
1124.0156120864772
21
-430.27815055662427
31
-7.5495165674510645e-13
0
ARC
5
223
100
AcDbEntity
8
0
100
AcDbCircle
10
1090.9367822338766
20
-318.73550373681644
30
-7.3718808835110394e-13
40
31.000000000000124
210
7.2164496600635077e-16
220
1.3183898417423995e-16
230
1
100
AcDbArc
50
115.1965563521245
51
281.48504622877243
0
LINE
5
224
100
AcDbEntity
8
0
100
AcDbLine
10
1056.6803862613197
20
-227.16054884783398
30
-7.3273715786685723e-13
11
1077.7393100864522
21
-290.68507185212047
31
-7.3136233945723319e-13
0
ENDSEC
0
SECTION
2
OBJECTS
0
DICTIONARY
5
C
100
AcDbDictionary
3
ACAD_GROUP
350
D
3
ACAD_MLINESTYLE
350
17
0
DICTIONARY
5
D
100
AcDbDictionary
0
DICTIONARY
5
1A
330
C
100
AcDbDictionary
0
DICTIONARY
5
17
100
AcDbDictionary
0
ENDSEC
0
EOF
